<?xml version="1.0" encoding="UTF-8"?>
<svg version="1.1" xmlns="http://www.w3.org/2000/svg" width="206" height="244">
<path d="M0 0 C67.98 0 135.96 0 206 0 C206 80.52 206 161.04 206 244 C138.02 244 70.04 244 0 244 C0 163.48 0 82.96 0 0 Z " fill="#FDFCFD" transform="translate(0,0)"/>
<path d="M0 0 C0 5.94 0 11.88 0 18 C0.66 18 1.32 18 2 18 C1.99777939 18.87252411 1.99555878 19.74504822 1.99327087 20.64401245 C1.9732581 28.85499665 1.95802081 37.06597268 1.94818783 45.27697563 C1.94296272 49.49862582 1.93587178 53.72025591 1.92456055 57.94189453 C1.9137185 62.01376672 1.90772036 66.08561953 1.90512276 70.15750504 C1.90327089 71.71328156 1.89965482 73.26905698 1.89426994 74.82482529 C1.88704205 76.99896307 1.8860098 79.17302016 1.88647461 81.34716797 C1.884254 82.58626923 1.88203339 83.82537048 1.87974548 85.10202026 C1.7992628 87.93998046 1.7992628 87.93998046 3 90 C-1.95 90 -6.9 90 -12 90 C-11.34 86.7 -10.68 83.4 -10 80 C-13.63 80.33 -17.26 80.66 -21 81 C-20.51515724 85.64586892 -20.51515724 85.64586892 -19 90 C-23.95 90 -28.9 90 -34 90 C-33.67 89.34 -33.34 88.68 -33 88 C-31.64815104 77.34333738 -31.64815104 77.34333738 -34.609375 67.46484375 C-36.656716 65.77540259 -38.73611293 64.38114006 -41 63 C-48.55544452 55.44455548 -51.48336288 46.34966238 -51.5625 35.8125 C-51.4638643 29.14114026 -50.69297712 23.70616256 -47 18 C-46.4225 16.989375 -45.845 15.97875 -45.25 14.9375 C-34.18705346 0.49420868 -17.68801462 -7.07520585 0 0 Z " fill="#0FA4D5" transform="translate(93,67)"/>
<path d="M0 0 C0.00410889 0.55461914 0.00821777 1.10923828 0.01245117 1.68066406 C0.04544181 4.204844 0.11608378 6.72662696 0.1875 9.25 C0.19330078 10.12269531 0.19910156 10.99539062 0.20507812 11.89453125 C0.3057776 17.30908332 0.3057776 17.30908332 3.55078125 21.484375 C4.35902344 21.98453125 5.16726562 22.4846875 6 23 C6 23.66 6 24.32 6 25 C4.35 25.66 2.7 26.32 1 27 C0.97459678 34.70466404 0.95711071 42.40931724 0.94506836 50.11401367 C0.9400468 52.73380944 0.9332283 55.35360243 0.92456055 57.97338867 C0.91239964 61.74398489 0.90674982 65.51454397 0.90234375 69.28515625 C0.89718246 70.45208511 0.89202118 71.61901398 0.88670349 72.82130432 C0.57832955 82.15343654 0.57832955 82.15343654 3 91 C-1.95 91 -6.9 91 -12 91 C-11.67 90.34 -11.34 89.68 -11 89 C-9.64815104 78.34333738 -9.64815104 78.34333738 -12.609375 68.46484375 C-14.656716 66.77540259 -16.73611293 65.38114006 -19 64 C-26.55544452 56.44455548 -29.48336288 47.34966238 -29.5625 36.8125 C-29.4638643 30.14114026 -28.69297712 24.70616256 -25 19 C-24.4225 17.989375 -23.845 16.97875 -23.25 15.9375 C-17.64760449 8.62326142 -9.94760474 0 0 0 Z " fill="#04A1D4" transform="translate(71,66)"/>
<path d="M0 0 C0.73766602 0.00161133 1.47533203 0.00322266 2.23535156 0.00488281 C10.73903401 0.19418347 18.42810902 2.33145009 24.6875 8.375 C23.3675 8.705 22.0475 9.035 20.6875 9.375 C20.6875 8.715 20.6875 8.055 20.6875 7.375 C6.69238471 4.75091588 -4.37266506 5.29714776 -16.3125 13.375 C-23.48900977 18.88228993 -27.47775619 25.87076857 -30.3125 34.375 C-31.24883998 47.41687834 -30.61697233 58.3415598 -21.875 68.8125 C-19.69337561 71.14722083 -17.48704011 72.9890003 -14.875 74.8125 C-11.9660207 77.7214793 -11.94359307 78.27574902 -11.9375 82.1875 C-12.03329435 83.58564132 -12.14875644 84.9831797 -12.3125 86.375 C-24.64089929 82.08027074 -33.87427434 75.16071045 -40.125 63.5 C-44.82488107 53.35815138 -46.31043229 41.4527458 -42.6875 30.75 C-37.57047783 18.35860486 -30.51022409 9.9413725 -18.74609375 3.3828125 C-12.57931157 0.82899259 -6.60983994 -0.01520902 0 0 Z " fill="#E82427" transform="translate(73.3125,59.625)"/>
<path d="M0 0 C0.66 0 1.32 0 2 0 C3.6317293 2.47410219 5.14700164 4.93659659 6.625 7.5 C7.25535156 8.57314453 7.25535156 8.57314453 7.8984375 9.66796875 C8.93888589 11.44146033 9.97028904 13.22025266 11 15 C11.18175781 14.37351563 11.36351562 13.74703125 11.55078125 13.1015625 C11.92783203 11.87566406 11.92783203 11.87566406 12.3125 10.625 C12.55613281 9.81289062 12.79976562 9.00078125 13.05078125 8.1640625 C14 6 14 6 17 4 C18.98 4 20.96 4 23 4 C23 8.29 23 12.58 23 17 C24.65 17 26.3 17 28 17 C27.938125 16.05125 27.87625 15.1025 27.8125 14.125 C27.9053125 12.578125 27.9053125 12.578125 28 11 C28.99 10.34 29.98 9.68 31 9 C31 11.31 31 13.62 31 16 C31.99 16 32.98 16 34 16 C33.9175 14.906875 33.835 13.81375 33.75 12.6875 C33.8325 11.470625 33.915 10.25375 34 9 C35.32 8.01 36.64 7.02 38 6 C38 9.3 38 12.6 38 16 C38.99 16 39.98 16 41 16 C40.95359375 15.31292969 40.9071875 14.62585938 40.859375 13.91796875 C40.80523437 12.56638672 40.80523437 12.56638672 40.75 11.1875 C40.70359375 10.29417969 40.6571875 9.40085938 40.609375 8.48046875 C41 6 41 6 45 3 C45 7.62 45 12.24 45 17 C46.65 17 48.3 17 50 17 C50 13.37 50 9.74 50 6 C51.32 6.99 52.64 7.98 54 9 C54.25 12.6875 54.25 12.6875 54 16 C55.32 16 56.64 16 58 16 C58 14.35 58 12.7 58 11 C59.32 10.34 60.64 9.68 62 9 C62 11.31 62 13.62 62 16 C62.99 16 63.98 16 65 16 C64.9175 14.906875 64.835 13.81375 64.75 12.6875 C64.8325 11.470625 64.915 10.25375 65 9 C66.32 8.01 67.64 7.02 69 6 C69 9.3 69 12.6 69 16 C69.99 16 70.98 16 72 16 C71.95359375 15.31292969 71.9071875 14.62585938 71.859375 13.91796875 C71.82328125 13.01691406 71.7871875 12.11585938 71.75 11.1875 C71.70359375 10.29417969 71.6571875 9.40085938 71.609375 8.48046875 C72 6 72 6 76 3 C76 7.29 76 11.58 76 16 C77.32 16 78.64 16 80 16 C80.0825 15.071875 80.165 14.14375 80.25 13.1875 C81 10 81 10 82.625 8.125 C85 7 85 7 92 7 C92 11.62 92 16.24 92 21 C81.41253482 21.2086788 70.82555993 21.36851791 60.23645592 21.46630955 C55.31916975 21.51324995 50.40329192 21.57689459 45.48681641 21.67895508 C40.74046668 21.77686548 35.99546976 21.83058134 31.24818802 21.85389519 C29.43872398 21.87050464 27.62933276 21.90294238 25.82044601 21.95157051 C11.62102889 22.31805298 11.62102889 22.31805298 7.58917236 19.0397644 C6.02801596 16.73007032 4.9861406 14.59818413 4 12 C3.38125 11.030625 2.7625 10.06125 2.125 9.0625 C1 7 1 7 1 5 C0.01 5 -0.98 5 -2 5 C-1.66226563 5.66386719 -1.32453125 6.32773438 -0.9765625 7.01171875 C-0.53054687 7.89472656 -0.08453125 8.77773437 0.375 9.6875 C0.81585938 10.55761719 1.25671875 11.42773438 1.7109375 12.32421875 C2.9190543 14.83197636 3.96619922 17.41549804 5 20 C-1.93 20 -8.86 20 -16 20 C-17.65 17.03 -19.3 14.06 -21 11 C-20.05125 10.278125 -19.1025 9.55625 -18.125 8.8125 C-15.32587438 6.50190102 -14.01482442 4.55188548 -13 1 C-12.3125 2.625 -12.3125 2.625 -12 5 C-12.495 5.969375 -12.99 6.93875 -13.5 7.9375 C-15.48527865 11.20589054 -15.48527865 11.20589054 -14 16 C-8.06 15.505 -8.06 15.505 -2 15 C-3.0209375 13.6696875 -3.0209375 13.6696875 -4.0625 12.3125 C-6 9 -6 9 -5.875 6.25 C-5 4 -5 4 -3 2 C-2.01 2 -1.02 2 0 2 C0 1.34 0 0.68 0 0 Z " fill="#E81D20" transform="translate(114,183)"/>
<path d="M0 0 C0 22.11 0 44.22 0 67 C-10.37384239 60.77569457 -15.21347656 53.35957033 -19 42 C-20.15847853 22.97056578 -20.15847853 22.97056578 -15 15 C-14.4225 13.989375 -13.845 12.97875 -13.25 11.9375 C-4.10638298 0 -4.10638298 0 0 0 Z " fill="#FEFDFD" transform="translate(61,70)"/>
<path d="M0 0 C1.98 0 3.96 0 6 0 C6 20.79 6 41.58 6 63 C3.66666667 63 1.33333333 63 -1 63 C-1.64453125 63.05800781 -2.2890625 63.11601563 -2.953125 63.17578125 C-7.2538925 63.43177932 -10.08882525 63.44832667 -13.5 60.625 C-16.87239412 57.08398617 -17.39526955 55.03199578 -17.359375 50.10546875 C-16.72418186 46.38406547 -14.66020984 44.59687151 -12 42 C-9.75487738 40.87743869 -8.48543351 40.86586238 -6 40.875 C-4.948125 40.87113281 -4.948125 40.87113281 -3.875 40.8671875 C-2 41 -2 41 0 42 C0 28.14 0 14.28 0 0 Z " fill="#0CA2D4" transform="translate(139,63)"/>
<path d="M0 0 C1 1 1 1 1.12025452 3.01844788 C1.1169236 4.3474839 1.1169236 4.3474839 1.11352539 5.70336914 C1.11344986 6.70433121 1.11337433 7.70529327 1.11329651 8.73658752 C1.10813522 9.8251152 1.10297394 10.91364288 1.09765625 12.03515625 C1.0962413 13.14354355 1.09482635 14.25193085 1.09336853 15.39390564 C1.08775033 18.95013069 1.07519475 22.50629383 1.0625 26.0625 C1.05748734 28.46679597 1.05292403 30.87109292 1.04882812 33.27539062 C1.03777499 39.18361777 1.02049816 45.09179837 1 51 C-2.63 51 -6.26 51 -10 51 C-10 34.5 -10 18 -10 1 C-6.74696956 -0.62651522 -3.60774398 -0.11453156 0 0 Z " fill="#FEFEFE" transform="translate(82,91)"/>
<path d="M0 0 C13.65714286 0 13.65714286 0 18 4 C20.97794964 8.46692447 20.61357248 12.76218611 20 18 C17.75946586 22.56108735 16.58950321 23.70524839 12 26 C8.04 26 4.08 26 0 26 C0 17.42 0 8.84 0 0 Z " fill="#19A5D6" transform="translate(53,215)"/>
<path d="M0 0 C1.65 0 3.3 0 5 0 C5 9.57 5 19.14 5 29 C6.32 29 7.64 29 9 29 C9.103125 28.401875 9.20625 27.80375 9.3125 27.1875 C10.10503854 24.66578648 10.91591409 23.60314301 13 22 C13.99 22 14.98 22 16 22 C15.67 19.69 15.34 17.38 15 15 C16.32 14.34 17.64 13.68 19 13 C20.06541016 14.39025391 20.06541016 14.39025391 21.15234375 15.80859375 C22.08069105 17.01825842 23.00907855 18.22789224 23.9375 19.4375 C24.64036133 20.35499023 24.64036133 20.35499023 25.35742188 21.29101562 C27.55671824 24.24968885 27.55671824 24.24968885 30 27 C30 28.98 30 30.96 30 33 C20.43 33 10.86 33 1 33 C0.67 22.11 0.34 11.22 0 0 Z " fill="#15A5D5" transform="translate(55,170)"/>
<path d="M0 0 C34.98 0 69.96 0 106 0 C106 0.99 106 1.98 106 3 C71.35 3 36.7 3 1 3 C0.67 2.01 0.34 1.02 0 0 Z " fill="#11A2D4" transform="translate(100,159)"/>
<path d="M0 0 C4.95 0 9.9 0 15 0 C14.34 0.66 13.68 1.32 13 2 C12.62731113 4.91188245 12.62731113 4.91188245 12.5859375 8.3203125 C12.52792969 10.20556641 12.52792969 10.20556641 12.46875 12.12890625 C12.4378125 13.44761719 12.406875 14.76632813 12.375 16.125 C12.33681971 17.46486918 12.29776794 18.80471383 12.2578125 20.14453125 C12.1632797 23.42954619 12.07772844 26.71455138 12 30 C8.7 29.01 5.4 28.02 2 27 C1.97494385 26.25314941 1.9498877 25.50629883 1.92407227 24.73681641 C1.80831787 21.36602733 1.68549872 17.99553217 1.5625 14.625 C1.52318359 13.449375 1.48386719 12.27375 1.44335938 11.0625 C1.40146484 9.94101562 1.35957031 8.81953125 1.31640625 7.6640625 C1.27974854 6.62717285 1.24309082 5.5902832 1.20532227 4.52197266 C1.15835777 2.00574834 1.15835777 2.00574834 0 0 Z " fill="#08A1D3" transform="translate(81,34)"/>
<path d="M0 0 C1.65 0 3.3 0 5 0 C5 19.14 5 38.28 5 58 C3.35 58 1.7 58 0 58 C0 38.86 0 19.72 0 0 Z " fill="#E8181B" transform="translate(106,63)"/>
<path d="M0 0 C0 1.98 0 3.96 0 6 C-0.66 6 -1.32 6 -2 6 C-2.35712683 10.66462067 -2.35712683 10.66462067 -0.9375 15 C2.13335213 16.58495594 4.72186775 15.68036707 8 15 C8.67673447 11.59679066 8.67673447 11.59679066 9 8 C8.34 7.34 7.68 6.68 7 6 C6.875 2.875 6.875 2.875 7 0 C9.31 0 11.62 0 14 0 C14 6.93 14 13.86 14 21 C1.06896552 23.15517241 1.06896552 23.15517241 -2.875 20.953125 C-5.71311044 18.6335155 -7.79360204 16.72223868 -8.23828125 13.01171875 C-8.3713075 8.84589668 -8.38831668 6.62130669 -6.125 3 C-2.9375 0 -2.9375 0 0 0 Z " fill="#05A0D3" transform="translate(105,104)"/>
<path d="M0 0 C2.89290437 2.58932799 4.75125513 5.56303019 6.75 8.875 C7.38421875 9.90367187 8.0184375 10.93234375 8.671875 11.9921875 C10.13053924 15.29563298 10.11842796 16.63228914 9 20 C5.2849421 16.83532105 3.34409551 13.19822406 1.1484375 8.92578125 C0.1433689 6.8470419 0.1433689 6.8470419 -2 6 C-1.66226562 6.67546875 -1.32453125 7.3509375 -0.9765625 8.046875 C1.015625 12.03125 3.0078125 16.015625 5 20 C1.4597564 20.26275596 -2.07798133 20.42160329 -5.625 20.5625 C-6.62402344 20.63791016 -7.62304688 20.71332031 -8.65234375 20.79101562 C-11.68257079 20.8813204 -14.08354104 20.84687554 -17 20 C-19.69379169 17.31455021 -21.39361958 14.4306407 -23 11 C-21.2421875 9.50260417 -19.484375 8.00520833 -17.7265625 6.5078125 C-16.44163349 5.38567993 -15.20628025 4.20628025 -14 3 C-14.55728913 6.34373475 -15.35173889 9.03312999 -17 12 C-16.01 13.485 -16.01 13.485 -15 15 C-12.10391601 15.36498034 -12.10391601 15.36498034 -8.875 15.1875 C-7.77929688 15.16042969 -6.68359375 15.13335937 -5.5546875 15.10546875 C-4.71164063 15.07066406 -3.86859375 15.03585938 -3 15 C-4.0209375 13.6696875 -4.0209375 13.6696875 -5.0625 12.3125 C-7 9 -7 9 -7.125 6.375 C-5.5317901 3.01155688 -3.16686503 1.81926289 0 0 Z " fill="#0DA2D4" transform="translate(25,183)"/>
<path d="M0 0 C3.96 0 7.92 0 12 0 C12 7.26 12 14.52 12 22 C9.19084526 23.40457737 7.11189466 23.24895157 4 23 C1.82910156 21.77612305 1.82910156 21.77612305 0 20 C-0.45410156 17.82348633 -0.45410156 17.82348633 -0.390625 15.33203125 C-0.37773438 14.43935547 -0.36484375 13.54667969 -0.3515625 12.62695312 C-0.31804687 11.69818359 -0.28453125 10.76941406 -0.25 9.8125 C-0.23195313 8.87212891 -0.21390625 7.93175781 -0.1953125 6.96289062 C-0.14817752 4.64149264 -0.0764339 2.32061806 0 0 Z " fill="#F7FAFC" transform="translate(71,65)"/>
<path d="M0 0 C2.14411859 0.5558826 4.27366114 1.17455371 6.375 1.875 C6.375 7.155 6.375 12.435 6.375 17.875 C2.3235134 19.9007433 0.75658899 20.59036147 -3.625 19.875 C-6.72639516 17.24555628 -8.24725447 15.61141089 -9.109375 11.6484375 C-9.36444807 7.41139038 -8.94024443 5.35264308 -6.5625 1.75 C-3.625 -0.125 -3.625 -0.125 0 0 Z " fill="#FEF9F9" transform="translate(199.625,218.125)"/>
<path d="M0 0 C2.140625 -0.49609375 2.140625 -0.49609375 5 0 C7.29777066 2.38814125 8.98744525 5.14164158 10.75 7.9375 C11.72367022 9.42596975 12.6976142 10.91426048 13.671875 12.40234375 C14.0956543 13.06741943 14.51943359 13.73249512 14.95605469 14.41772461 C15.90640161 15.97333743 15.90640161 15.97333743 17 17 C17.02691685 14.54159395 17.04679802 12.08348118 17.0625 9.625 C17.07087891 8.92632812 17.07925781 8.22765625 17.08789062 7.5078125 C17.1835442 3.62704624 17.1835442 3.62704624 16 0 C17.98 0 19.96 0 22 0 C21.67 8.91 21.34 17.82 21 27 C16.75511052 24.87755526 15.59889036 23.47703271 12.9375 19.6875 C12.26589844 18.74261719 11.59429687 17.79773438 10.90234375 16.82421875 C9.18292861 14.27157573 7.58347508 11.63912513 6 9 C6 14.61 6 20.22 6 26 C4.02 26 2.04 26 0 26 C0.33 25.34 0.66 24.68 1 24 C1.09602313 22.35637388 1.13074561 20.70892734 1.1328125 19.0625 C1.13410156 18.08539063 1.13539063 17.10828125 1.13671875 16.1015625 C1.13285156 15.07804688 1.12898437 14.05453125 1.125 13 C1.12886719 11.97648438 1.13273438 10.95296875 1.13671875 9.8984375 C1.13542969 8.92132813 1.13414062 7.94421875 1.1328125 6.9375 C1.13112061 5.58978516 1.13112061 5.58978516 1.12939453 4.21484375 C1.14363084 1.95868875 1.14363084 1.95868875 0 0 Z " fill="#EC494B" transform="translate(150,215)"/>
<path d="M0 0 C15.26785714 -0.66964286 15.26785714 -0.66964286 18.875 2.375 C22.24060276 6.53250929 22.1244837 9.45651299 22.0625 14.625 C22.05798828 15.33140625 22.05347656 16.0378125 22.04882812 16.765625 C22.03703875 18.51045275 22.01910324 20.255237 22 22 C20.68 22 19.36 22 18 22 C17.96261719 21.09636719 17.92523438 20.19273437 17.88671875 19.26171875 C17.82097656 18.08222656 17.75523437 16.90273437 17.6875 15.6875 C17.62949219 14.51574219 17.57148438 13.34398437 17.51171875 12.13671875 C17.23532463 9.05308147 17.23532463 9.05308147 15.68359375 7.06640625 C12.80831883 5.24517643 10.16860724 6.29586506 7 7 C5.05909174 8.94090826 5.60080565 12.47293902 5.4375 15.0625 C5.35371094 16.35285156 5.26992187 17.64320313 5.18359375 18.97265625 C5.12300781 19.97167969 5.06242187 20.97070312 5 22 C3.35 22 1.7 22 0 22 C0 14.74 0 7.48 0 0 Z " fill="#E92124" transform="translate(122,128)"/>
<path d="M0 0 C2.31 0 4.62 0 7 0 C6.67 4.29 6.34 8.58 6 13 C9.63 13 13.26 13 17 13 C16.505 6.565 16.505 6.565 16 0 C17.98 0 19.96 0 22 0 C22 8.58 22 17.16 22 26 C20.02 26 18.04 26 16 26 C16.33 22.7 16.66 19.4 17 16 C13.04 16 9.08 16 5 16 C5.144375 17.27875 5.28875 18.5575 5.4375 19.875 C5.51871094 20.59429687 5.59992187 21.31359375 5.68359375 22.0546875 C5.91292961 24.07404316 5.91292961 24.07404316 7 26 C5.02 26 3.04 26 1 26 C1.00523682 25.28344238 1.01047363 24.56688477 1.01586914 23.82861328 C1.03660667 20.59408438 1.04964984 17.35956944 1.0625 14.125 C1.07087891 12.99707031 1.07925781 11.86914062 1.08789062 10.70703125 C1.09111328 9.63066406 1.09433594 8.55429688 1.09765625 7.4453125 C1.10289307 6.45031738 1.10812988 5.45532227 1.11352539 4.43017578 C1.1639415 1.99039227 1.1639415 1.99039227 0 0 Z " fill="#12A4D5" transform="translate(0,215)"/>
<path d="M0 0 C0.66 0 1.32 0 2 0 C4.64 4.62 7.28 9.24 10 14 C8.35 14 6.7 14 5 14 C1 7.25 1 7.25 1 5 C0.01 5 -0.98 5 -2 5 C-1.66226563 5.66386719 -1.32453125 6.32773438 -0.9765625 7.01171875 C-0.53054687 7.89472656 -0.08453125 8.77773437 0.375 9.6875 C0.81585938 10.55761719 1.25671875 11.42773438 1.7109375 12.32421875 C2.9190543 14.83197636 3.96619922 17.41549804 5 20 C-1.93 20 -8.86 20 -16 20 C-17.65 17.03 -19.3 14.06 -21 11 C-20.05125 10.278125 -19.1025 9.55625 -18.125 8.8125 C-15.32587438 6.50190102 -14.01482442 4.55188548 -13 1 C-12.3125 2.625 -12.3125 2.625 -12 5 C-12.495 5.969375 -12.99 6.93875 -13.5 7.9375 C-15.48527865 11.20589054 -15.48527865 11.20589054 -14 16 C-8.06 15.505 -8.06 15.505 -2 15 C-3.0209375 13.6696875 -3.0209375 13.6696875 -4.0625 12.3125 C-6 9 -6 9 -5.875 6.25 C-5 4 -5 4 -3 2 C-2.01 2 -1.02 2 0 2 C0 1.34 0 0.68 0 0 Z " fill="#E9282B" transform="translate(114,183)"/>
<path d="M0 0 C1.65 0 3.3 0 5 0 C8.10653443 7.33670896 11.05572406 14.70292226 13.7890625 22.1875 C14.9261933 24.82857799 16.16951333 26.79918365 18 29 C14.59497074 28.71624756 13.23742254 28.23082747 10.75 25.8125 C8.86093921 22.77650944 8.32862916 20.53276352 8 17 C5.03 17.33 2.06 17.66 -1 18 C-1.33 20.64 -1.66 23.28 -2 26 C-3.98 26 -5.96 26 -8 26 C-7.75765625 25.35450195 -7.5153125 24.70900391 -7.265625 24.04394531 C-6.17033661 21.11510203 -5.08507711 18.18264084 -4 15.25 C-3.6184375 14.23421875 -3.236875 13.2184375 -2.84375 12.171875 C-2.4828125 11.1921875 -2.121875 10.2125 -1.75 9.203125 C-1.41484375 8.30239258 -1.0796875 7.40166016 -0.734375 6.47363281 C0.18973582 3.7909602 0.18973582 3.7909602 0 0 Z " fill="#21A9D7" transform="translate(34,215)"/>
<path d="M0 0 C2.39446415 1.43869064 4.00202012 3.00202012 6 5 C4.68 5.99 3.36 6.98 2 8 C1.01 7.34 0.02 6.68 -1 6 C-5.14776273 5.71337567 -5.14776273 5.71337567 -9 7 C-9 9.64 -9 12.28 -9 15 C-6.2761601 16.36191995 -4.01903173 16.06161289 -1 16 C-0.01 16 0.98 16 2 16 C2.66 16.99 3.32 17.98 4 19 C1.38660835 21.72701737 -0.78492642 22.28530943 -4.4375 22.4375 C-8.75918587 22.30222482 -10.97908943 21.20971748 -14 18 C-15.85726616 14.28546768 -15.58501089 10.04420575 -15 6 C-10.84399164 0.64093658 -6.75570308 -1.17599276 0 0 Z " fill="#E92326" transform="translate(172,128)"/>
<path d="M0 0 C7 1 7 1 9.4375 2.4375 C11.89652151 6.47029528 11.74117969 10.40774231 11 15 C9.4375 17.5625 9.4375 17.5625 7 19 C4.69 19.33 2.38 19.66 0 20 C0 13.4 0 6.8 0 0 Z " fill="#F6FBFD" transform="translate(58,218)"/>
<path d="M0 0 C1.50433594 0.01353516 1.50433594 0.01353516 3.0390625 0.02734375 C3.80992188 0.03894531 4.58078125 0.05054688 5.375 0.0625 C5.375 1.7125 5.375 3.3625 5.375 5.0625 C4.77171875 4.94390625 4.1684375 4.8253125 3.546875 4.703125 C-1.48941816 3.83143843 -1.48941816 3.83143843 -6.1875 5.4375 C-8.32356071 9.33813259 -8.35029201 12.71846378 -7.625 17.0625 C-6.49650077 20.3488782 -6.49650077 20.3488782 -3.625 22.0625 C-0.20238836 22.16442731 3.01949178 21.70926781 6.375 21.0625 C5.385 23.5375 5.385 23.5375 4.375 26.0625 C-5.30188652 26.92309267 -5.30188652 26.92309267 -9.1875 23.75 C-13.11292182 19.42197081 -13.01412102 15.41534159 -12.984375 9.80078125 C-12.42431339 5.53335526 -10.77410247 3.91168795 -7.625 1.0625 C-4.98041621 -0.25979189 -2.94738699 -0.03427194 0 0 Z " fill="#E92023" transform="translate(109.625,214.9375)"/>
<path d="M0 0 C1.49080078 0.02707031 1.49080078 0.02707031 3.01171875 0.0546875 C3.77097656 0.07789063 4.53023437 0.10109375 5.3125 0.125 C5.3125 1.775 5.3125 3.425 5.3125 5.125 C4.70921875 5.00640625 4.1059375 4.8878125 3.484375 4.765625 C-1.55191816 3.89393843 -1.55191816 3.89393843 -6.25 5.5 C-8.38606071 9.40063259 -8.41279201 12.78096378 -7.6875 17.125 C-6.55900077 20.4113782 -6.55900077 20.4113782 -3.6875 22.125 C-0.26488836 22.22692731 2.95699178 21.77176781 6.3125 21.125 C5.3225 23.6 5.3225 23.6 4.3125 26.125 C-4.61739844 26.74922591 -4.61739844 26.74922591 -8.6875 24.375 C-12.60999871 19.96218895 -13.12256492 16.38261676 -13.01171875 10.6015625 C-12.53802678 6.98324074 -11.06074418 4.83727906 -8.6875 2.125 C-5.26655758 -0.15562828 -4.00562778 -0.09425007 0 0 Z " fill="#E91D20" transform="translate(199.6875,214.875)"/>
<path d="M0 0 C2.31 0 4.62 0 7 0 C7 4.62 7 9.24 7 14 C-20.06 14 -47.12 14 -75 14 C-75 13.67 -75 13.34 -75 13 C-49.59 12.67 -24.18 12.34 2 12 C0.68 11.34 -0.64 10.68 -2 10 C-1.37240135 7.07120629 -0.41377341 4.63904371 1 2 C0.01 1.505 0.01 1.505 -1 1 C-0.67 0.67 -0.34 0.34 0 0 Z " fill="#ED5558" transform="translate(199,190)"/>
<path d="M0 0 C17.49 0 34.98 0 53 0 C53 0.99 53 1.98 53 3 C35.51 3 18.02 3 0 3 C0 2.01 0 1.02 0 0 Z " fill="#11A2D4" transform="translate(2,159)"/>
<path d="M0 0 C0 4.62 0 9.24 0 14 C1.32 14.33 2.64 14.66 4 15 C1.03 15 -1.94 15 -5 15 C-5 14.67 -5 14.34 -5 14 C-7.31 13.67 -9.62 13.34 -12 13 C-11.77082032 11.39272673 -11.51579198 9.78912584 -11.25 8.1875 C-11.11078125 7.29417969 -10.9715625 6.40085938 -10.828125 5.48046875 C-8.89850095 -0.29930141 -5.82666428 0 0 0 Z " fill="#E91F21" transform="translate(137,187)"/>
<path d="M0 0 C1.98 0 3.96 0 6 0 C5.67 7.59 5.34 15.18 5 23 C8.3 22.34 11.6 21.68 15 21 C14.67 22.65 14.34 24.3 14 26 C9.38 26 4.76 26 0 26 C0 17.42 0 8.84 0 0 Z " fill="#E92B2D" transform="translate(120,215)"/>
<path d="M0 0 C3.63 0 7.26 0 11 0 C10.67 4.29 10.34 8.58 10 13 C6.7 13.33 3.4 13.66 0 14 C0 9.38 0 4.76 0 0 Z " fill="#049FD2" transform="translate(61,47)"/>
<path d="M0 0 C2.12472576 -0.05386629 4.24983652 -0.09273071 6.375 -0.125 C7.55835938 -0.14820313 8.74171875 -0.17140625 9.9609375 -0.1953125 C13 0 13 0 15 2 C15.27450545 5.34896654 15.08628804 8.63476663 15 12 C9.39 12 3.78 12 -2 12 C-1.67 11.01 -1.34 10.02 -1 9 C3.29 9 7.58 9 12 9 C11.67 7.68 11.34 6.36 11 5 C7.04 4.67 3.08 4.34 -1 4 C-0.67 2.68 -0.34 1.36 0 0 Z " fill="#029FD3" transform="translate(38,191)"/>
<path d="M0 0 C0 4.29 0 8.58 0 13 C1.32 13.33 2.64 13.66 4 14 C3.67 14.66 3.34 15.32 3 16 C-2.28 16 -7.56 16 -13 16 C-13.33 15.01 -13.66 14.02 -14 13 C-13.01 13 -12.02 13 -11 13 C-11.0825 11.906875 -11.165 10.81375 -11.25 9.6875 C-11.1675 8.470625 -11.085 7.25375 -11 6 C-9.68 5.01 -8.36 4.02 -7 3 C-7 6.3 -7 9.6 -7 13 C-6.01 13 -5.02 13 -4 13 C-4.05220703 11.96939453 -4.05220703 11.96939453 -4.10546875 10.91796875 C-4.14607422 9.56638672 -4.14607422 9.56638672 -4.1875 8.1875 C-4.22230469 7.29417969 -4.25710937 6.40085938 -4.29296875 5.48046875 C-4 3 -4 3 -2.55078125 1.17578125 C-1 0 -1 0 0 0 Z " fill="#EA2E30" transform="translate(190,186)"/>
<path d="M0 0 C1.875 1.125 1.875 1.125 3 3 C3.39365568 6.14924548 3.52854531 8.11909116 1.875 10.875 C-0.88090884 12.52854531 -2.85075452 12.39365568 -6 12 C-7.875 10.875 -7.875 10.875 -9 9 C-9.39365568 5.85075452 -9.52854531 3.88090884 -7.875 1.125 C-5.11909116 -0.52854531 -3.14924548 -0.39365568 0 0 Z " fill="#F9FCFD" transform="translate(136,109)"/>
<path d="M0 0 C1.65 0 3.3 0 5 0 C5 7.92 5 15.84 5 24 C3.35 24 1.7 24 0 24 C0 16.08 0 8.16 0 0 Z " fill="#E62327" transform="translate(106,126)"/>
<path d="M0 0 C0.33 0 0.66 0 1 0 C1 16.17 1 32.34 1 49 C4.63 49 8.26 49 12 49 C12 50.65 12 52.3 12 54 C7.7345163 55.03405665 4.62683027 55 0 55 C0 36.85 0 18.7 0 0 Z " fill="#82B3D1" transform="translate(71,93)"/>
<path d="M0 0 C1.65 0 3.3 0 5 0 C5 7.26 5 14.52 5 22 C3.35 22 1.7 22 0 22 C0 14.74 0 7.48 0 0 Z " fill="#E92427" transform="translate(148,128)"/>
<path d="M0 0 C1.65 0 3.3 0 5 0 C5 7.26 5 14.52 5 22 C3.35 22 1.7 22 0 22 C0 14.74 0 7.48 0 0 Z " fill="#E92428" transform="translate(114,128)"/>
<path d="M0 0 C1.65 0 3.3 0 5 0 C5 7.26 5 14.52 5 22 C3.35 22 1.7 22 0 22 C0 14.74 0 7.48 0 0 Z " fill="#0CA2D4" transform="translate(148,104)"/>
<path d="M0 0 C1.98 0 3.96 0 6 0 C6 8.58 6 17.16 6 26 C4.02 26 2.04 26 0 26 C0 17.42 0 8.84 0 0 Z " fill="#13A3D5" transform="translate(78,215)"/>
<path d="M0 0 C0.33 0 0.66 0 1 0 C1.66 9.57 2.32 19.14 3 29 C5.475 29.99 5.475 29.99 8 31 C8 31.66 8 32.32 8 33 C3.38 33 -1.24 33 -6 33 C-6 32.34 -6 31.68 -6 31 C-4.35 30.67 -2.7 30.34 -1 30 C-0.67 20.1 -0.34 10.2 0 0 Z " fill="#10A1D4" transform="translate(66,10)"/>
<path d="M0 0 C2.31 0 4.62 0 7 0 C6.67 0.66 6.34 1.32 6 2 C5.90397687 3.64362612 5.86925439 5.29107266 5.8671875 6.9375 C5.86589844 7.91460937 5.86460937 8.89171875 5.86328125 9.8984375 C5.86714844 10.92195312 5.87101563 11.94546875 5.875 13 C5.87113281 14.02351562 5.86726562 15.04703125 5.86328125 16.1015625 C5.86521484 17.56722656 5.86521484 17.56722656 5.8671875 19.0625 C5.86831543 19.96097656 5.86944336 20.85945313 5.87060547 21.78515625 C5.85636916 24.04131125 5.85636916 24.04131125 7 26 C4.69 26 2.38 26 0 26 C0.33 25.34 0.66 24.68 1 24 C1.09602313 22.35637388 1.13074561 20.70892734 1.1328125 19.0625 C1.13410156 18.08539063 1.13539063 17.10828125 1.13671875 16.1015625 C1.13285156 15.07804688 1.12898437 14.05453125 1.125 13 C1.12886719 11.97648438 1.13273438 10.95296875 1.13671875 9.8984375 C1.13542969 8.92132813 1.13414062 7.94421875 1.1328125 6.9375 C1.13112061 5.58978516 1.13112061 5.58978516 1.12939453 4.21484375 C1.14363084 1.95868875 1.14363084 1.95868875 0 0 Z " fill="#E91D20" transform="translate(139,215)"/>
<path d="M0 0 C0.6875 1.625 0.6875 1.625 1 4 C0.484375 4.969375 -0.03125 5.93875 -0.5625 6.9375 C-1.036875 7.948125 -1.51125 8.95875 -2 10 C-1.34 11.65 -0.68 13.3 0 15 C3.96 15.33 7.92 15.66 12 16 C12 16.33 12 16.66 12 17 C13.98 17.33 15.96 17.66 18 18 C18 18.33 18 18.66 18 19 C11.07 19 4.14 19 -3 19 C-4.65 16.03 -6.3 13.06 -8 10 C-7.05125 9.278125 -6.1025 8.55625 -5.125 7.8125 C-2.32587438 5.50190102 -1.01482442 3.55188548 0 0 Z " fill="#E81E21" transform="translate(101,184)"/>
<path d="M0 0 C2.31 0 4.62 0 7 0 C6.67 0.66 6.34 1.32 6 2 C5.90397687 3.64362612 5.86925439 5.29107266 5.8671875 6.9375 C5.86589844 7.91460937 5.86460937 8.89171875 5.86328125 9.8984375 C5.86714844 10.92195312 5.87101563 11.94546875 5.875 13 C5.87113281 14.02351562 5.86726562 15.04703125 5.86328125 16.1015625 C5.86521484 17.56722656 5.86521484 17.56722656 5.8671875 19.0625 C5.86831543 19.96097656 5.86944336 20.85945313 5.87060547 21.78515625 C5.85636916 24.04131125 5.85636916 24.04131125 7 26 C5.02 26 3.04 26 1 26 C1.00523682 25.28344238 1.01047363 24.56688477 1.01586914 23.82861328 C1.03660667 20.59408438 1.04964984 17.35956944 1.0625 14.125 C1.07087891 12.99707031 1.07925781 11.86914062 1.08789062 10.70703125 C1.09111328 9.63066406 1.09433594 8.55429688 1.09765625 7.4453125 C1.10289307 6.45031738 1.10812988 5.45532227 1.11352539 4.43017578 C1.1639415 1.99039227 1.1639415 1.99039227 0 0 Z " fill="#E91B1E" transform="translate(176,215)"/>
<path d="M0 0 C1.98 0 3.96 0 6 0 C5.67 8.91 5.34 17.82 5 27 C4.01 26.67 3.02 26.34 2 26 C1.97494385 25.28344238 1.9498877 24.56688477 1.92407227 23.82861328 C1.80830249 20.59388486 1.68549031 17.35946159 1.5625 14.125 C1.52318359 12.99707031 1.48386719 11.86914062 1.44335938 10.70703125 C1.40146484 9.63066406 1.35957031 8.55429688 1.31640625 7.4453125 C1.27974854 6.45031738 1.24309082 5.45532227 1.20532227 4.43017578 C1.15040468 1.99220499 1.15040468 1.99220499 0 0 Z " fill="#E80F11" transform="translate(166,215)"/>
<path d="M0 0 C0.33 0 0.66 0 1 0 C1.82650905 6.00087244 2.2790899 11.95082054 2.5625 18 C2.60568359 18.87011719 2.64886719 19.74023438 2.69335938 20.63671875 C2.79824218 22.75768219 2.89950075 24.87882433 3 27 C5.475 27.99 5.475 27.99 8 29 C8 29.66 8 30.32 8 31 C3.38 31 -1.24 31 -6 31 C-3 29 -3 29 -1 28 C-0.67 18.76 -0.34 9.52 0 0 Z " fill="#18A4D5" transform="translate(87,0)"/>
<path d="M0 0 C3.26460973 1.80412643 4.88929795 2.83394693 7 6 C7.265625 8.62890625 7.265625 8.62890625 7.25 11.5625 C7.25515625 12.53316406 7.2603125 13.50382813 7.265625 14.50390625 C7 17 7 17 5 19 C4.01 18.34 3.02 17.68 2 17 C1.78785727 14.4233497 2.00535348 11.9867705 2.1875 9.41015625 C1.95889349 6.47161004 1.13296349 5.90222074 -1 4 C-0.6875 1.8125 -0.6875 1.8125 0 0 Z " fill="#0DA2D4" transform="translate(66,216)"/>
<path d="M0 0 C0 1.65 0 3.3 0 5 C-0.56847656 4.85820312 -1.13695312 4.71640625 -1.72265625 4.5703125 C-6.58693869 3.59755869 -6.58693869 3.59755869 -11.0859375 5.26953125 C-12.29214408 6.35613507 -13.46338181 7.48327332 -14.58984375 8.65234375 C-16 10 -16 10 -18 10 C-17.16017873 6.64071493 -16.26227877 4.321503 -14.0625 1.625 C-9.47663319 -0.80831708 -5.08841113 -0.32081051 0 0 Z " fill="#E91F22" transform="translate(205,215)"/>
<path d="M0 0 C2.67456717 0.37792797 3.80611814 0.79766916 5.703125 2.77734375 C6.21359375 3.49019531 6.7240625 4.20304688 7.25 4.9375 C7.77078125 5.64777344 8.2915625 6.35804688 8.828125 7.08984375 C10 9 10 9 10 11 C10.66 11 11.32 11 12 11 C12 12.98 12 14.96 12 17 C7.78736237 15.47244446 6.15081225 12.73040761 3.75 9.0625 C3.04359375 8.00160156 2.3371875 6.94070312 1.609375 5.84765625 C0 3 0 3 0 0 Z " fill="#E92224" transform="translate(157,223)"/>
<path d="M0 0 C1.32 0.99 2.64 1.98 4 3 C4.25 6.6875 4.25 6.6875 4 10 C5.32 10 6.64 10 8 10 C8 8.35 8 6.7 8 5 C8.33 5 8.66 5 9 5 C9.125 10.75 9.125 10.75 8 13 C4.04 13 0.08 13 -4 13 C-4.33 12.34 -4.66 11.68 -5 11 C-3.35 11 -1.7 11 0 11 C0 7.37 0 3.74 0 0 Z " fill="#EB3E41" transform="translate(164,189)"/>
<path d="M0 0 C4.09189762 1.36396587 4.61547327 3.34848983 6.6875 7.0625 C7.31011719 8.16722656 7.93273437 9.27195313 8.57421875 10.41015625 C9.27998047 11.69212891 9.27998047 11.69212891 10 13 C8 15 8 15 5.66162109 15.22705078 C4.70852051 15.21657715 3.75541992 15.20610352 2.7734375 15.1953125 C1.2265625 15.18564453 1.2265625 15.18564453 -0.3515625 15.17578125 C-1.43179687 15.15902344 -2.51203125 15.14226562 -3.625 15.125 C-4.71296875 15.11597656 -5.8009375 15.10695312 -6.921875 15.09765625 C-9.61480152 15.07403409 -12.30729255 15.04109556 -15 15 C-15 14.67 -15 14.34 -15 14 C-4.605 13.505 -4.605 13.505 6 13 C5.01 11.411875 4.02 9.82375 3 8.1875 C0 3.375 0 3.375 0 0 Z " fill="#B4DEEF" transform="translate(23,189)"/>
<path d="M0 0 C1.65 0.33 3.3 0.66 5 1 C5.13020833 3.01822917 5.26041667 5.03645833 5.390625 7.0546875 C5.59171875 7.69664062 5.7928125 8.33859375 6 9 C7.32 9.66 8.64 10.32 10 11 C7.03 11 4.06 11 1 11 C1 10.67 1 10.34 1 10 C-1.31 9.67 -3.62 9.34 -6 9 C-5.67 8.34 -5.34 7.68 -5 7 C-2.69 7 -0.38 7 2 7 C2 6.34 2 5.68 2 5 C1.01 5 0.02 5 -1 5 C-0.67 3.35 -0.34 1.7 0 0 Z " fill="#EF6769" transform="translate(131,191)"/>
<path d="M0 0 C0 3.3 0 6.6 0 10 C0.99 10.33 1.98 10.66 3 11 C2.67 11.66 2.34 12.32 2 13 C-0.64 13 -3.28 13 -6 13 C-6.33 12.01 -6.66 11.02 -7 10 C-6.01 10 -5.02 10 -4 10 C-4.061875 8.906875 -4.12375 7.81375 -4.1875 6.6875 C-4 3 -4 3 -2.5625 1.0625 C-1 0 -1 0 0 0 Z " fill="#EA393C" transform="translate(183,189)"/>
<path d="M0 0 C3.63 0 7.26 0 11 0 C11 1.65 11 3.3 11 5 C7.37 5 3.74 5 0 5 C0 3.35 0 1.7 0 0 Z " fill="#E91E21" transform="translate(72,142)"/>
<path d="M0 0 C1.65 0 3.3 0 5 0 C6.625 2.6875 6.625 2.6875 8 6 C7.1875 8.875 7.1875 8.875 6 11 C4 8 4 8 4 5 C3.34 5 2.68 5 2 5 C2 5.99 2 6.98 2 8 C1.01 8.33 0.02 8.66 -1 9 C-0.67 6.03 -0.34 3.06 0 0 Z " fill="#1DA6D6" transform="translate(34,215)"/>
<path d="M0 0 C5.28 0 10.56 0 16 0 C16 0.99 16 1.98 16 3 C10.39 3 4.78 3 -1 3 C-0.67 2.01 -0.34 1.02 0 0 Z " fill="#23A7D6" transform="translate(81,159)"/>
<path d="M0 0 C5.28 0 10.56 0 16 0 C16 0.99 16 1.98 16 3 C10.39 3 4.78 3 -1 3 C-0.67 2.01 -0.34 1.02 0 0 Z " fill="#22A7D6" transform="translate(59,159)"/>
<path d="M0 0 C0.33 0 0.66 0 1 0 C2.2675321 5.29194651 2.36131168 10.61324226 2.60546875 16.02539062 C2.72069782 20.14541069 2.72069782 20.14541069 4 24 C2.02 24 0.04 24 -2 24 C-1.67 23.34 -1.34 22.68 -1 22 C-0.84777027 20.33434251 -0.75082785 18.66343504 -0.68359375 16.9921875 C-0.64169922 16.00605469 -0.59980469 15.01992187 -0.55664062 14.00390625 C-0.51732422 12.97136719 -0.47800781 11.93882812 -0.4375 10.875 C-0.39431641 9.83472656 -0.35113281 8.79445312 -0.30664062 7.72265625 C-0.2003712 5.14857472 -0.09833417 2.57439492 0 0 Z " fill="#E80C0E" transform="translate(152,217)"/>
<path d="M0 0 C0 3.63 0 7.26 0 11 C-1.98 11.99 -1.98 11.99 -4 13 C-4.99 12.67 -5.98 12.34 -7 12 C-7 11.34 -7 10.68 -7 10 C-6.01 10 -5.02 10 -4 10 C-4.061875 8.906875 -4.12375 7.81375 -4.1875 6.6875 C-4 3 -4 3 -2.5625 1.0625 C-1 0 -1 0 0 0 Z " fill="#EA3335" transform="translate(152,189)"/>
<path d="M0 0 C2.64 0 5.28 0 8 0 C8 0.33 8 0.66 8 1 C5.69 1 3.38 1 1 1 C1.8604139 5.33229715 1.8604139 5.33229715 4 9 C3.71269945 11.33944736 3.38063221 13.6739143 3 16 C2.01 16.33 1.02 16.66 0 17 C0 11.39 0 5.78 0 0 Z " fill="#E2F1F7" transform="translate(111,103)"/>
<path d="M0 0 C0.66 0 1.32 0 2 0 C2 5.61 2 11.22 2 17 C1.01 16.67 0.02 16.34 -1 16 C-2.125 9.25 -2.125 9.25 -1 7 C-0.34 7 0.32 7 1 7 C0.67 4.69 0.34 2.38 0 0 Z " fill="#EDF6FA" transform="translate(104,103)"/>
<path d="M0 0 C2.53203862 1.26601931 2.81359065 2.34461131 4 4.875 C5.21201839 7.44107018 6.41269132 9.61903698 8 12 C4.50832834 11.70902736 3.23799325 11.24460417 0.75 8.6875 C-0.79239724 6.31881853 -1.59162913 4.75650336 -2 2 C-1.34 2 -0.68 2 0 2 C0 1.34 0 0.68 0 0 Z " fill="#0DA2D4" transform="translate(44,232)"/>
<path d="M0 0 C3.63 0 7.26 0 11 0 C11 1.65 11 3.3 11 5 C7.7 4.67 4.4 4.34 1 4 C0.67 2.68 0.34 1.36 0 0 Z " fill="#E81519" transform="translate(104,215)"/>
<path d="M0 0 C1.98 0 3.96 0 6 0 C5.67 8.91 5.34 17.82 5 27 C4.34 26.67 3.68 26.34 3 26 C3.33 18.41 3.66 10.82 4 3 C2.68 2.34 1.36 1.68 0 1 C0 0.67 0 0.34 0 0 Z " fill="#ED5B5D" transform="translate(166,215)"/>
<path d="M0 0 C0.99 0.33 1.98 0.66 3 1 C2 5 2 5 1 9 C1.99 9.66 2.98 10.32 4 11 C1.69 11 -0.62 11 -3 11 C-2.67 10.01 -2.34 9.02 -2 8 C-2.20625 7.360625 -2.4125 6.72125 -2.625 6.0625 C-3 4 -3 4 -1.5625 1.75 C-1.046875 1.1725 -0.53125 0.595 0 0 Z " fill="#E9282B" transform="translate(197,191)"/>
<path d="M0 0 C0 0.66 0 1.32 0 2 C-4.62 2 -9.24 2 -14 2 C-13.01 1.34 -12.02 0.68 -11 0 C-10.4225 -0.4125 -9.845 -0.825 -9.25 -1.25 C-5.82052056 -2.39315981 -3.32282681 -1.15020928 0 0 Z " fill="#059ED3" transform="translate(95,29)"/>
<path d="M0 0 C0.33 0.66 0.66 1.32 1 2 C0.01 3.485 0.01 3.485 -1 5 C-3.1640625 5.29296875 -3.1640625 5.29296875 -5.625 5.1875 C-6.44226563 5.16042969 -7.25953125 5.13335937 -8.1015625 5.10546875 C-9.04128906 5.05326172 -9.04128906 5.05326172 -10 5 C-9.67 4.01 -9.34 3.02 -9 2 C-6.93359375 1.26953125 -6.93359375 1.26953125 -4.4375 0.8125 C-3.61121094 0.65394531 -2.78492188 0.49539062 -1.93359375 0.33203125 C-1.29550781 0.22246094 -0.65742188 0.11289063 0 0 Z " fill="#E8161A" transform="translate(205,236)"/>
<path d="M0 0 C0.66 0 1.32 0 2 0 C2.33 0.99 2.66 1.98 3 3 C1.6875 5 1.6875 5 0 7 C-0.99 8.485 -0.99 8.485 -2 10 C-2.66 8.35 -3.32 6.7 -4 5 C-2.71937515 3.2925002 -1.38232443 1.62626404 0 0 Z " fill="#E8171B" transform="translate(102,216)"/>
<path d="M0 0 C0.33 0.66 0.66 1.32 1 2 C0.67 2.99 0.34 3.98 0 5 C-3.96 5 -7.92 5 -12 5 C-8.96079826 1.96079826 -8.26589018 1.55734163 -4.3125 0.8125 C-3.50425781 0.65394531 -2.69601563 0.49539062 -1.86328125 0.33203125 C-0.94095703 0.16767578 -0.94095703 0.16767578 0 0 Z " fill="#E9191D" transform="translate(134,236)"/>
<path d="M0 0 C0.33 0 0.66 0 1 0 C1 2.64 1 5.28 1 8 C-0.75 9.125 -0.75 9.125 -3 10 C-5.25 9.125 -5.25 9.125 -7 8 C-5.35 8 -3.7 8 -2 8 C-2.04125 7.05125 -2.0825 6.1025 -2.125 5.125 C-2 2 -2 2 0 0 Z " fill="#E80E12" transform="translate(144,192)"/>
<path d="M0 0 C0.66 0 1.32 0 2 0 C2.33 2.64 2.66 5.28 3 8 C1.68 8 0.36 8 -1 8 C-0.67 5.36 -0.34 2.72 0 0 Z " fill="#E2F2F9" transform="translate(36,220)"/>
<path d="M0 0 C3.3 0 6.6 0 10 0 C10 1.65 10 3.3 10 5 C8.68 4.67 7.36 4.34 6 4 C6 3.01 6 2.02 6 1 C4.02 1 2.04 1 0 1 C0 0.67 0 0.34 0 0 Z " fill="#EA2C2E" transform="translate(195,215)"/>
<path d="M0 0 C0.66 0 1.32 0 2 0 C2 1.98 2 3.96 2 6 C0.35 6 -1.3 6 -3 6 C-2.42655063 3.13275314 -2.1385485 2.1385485 0 0 Z " fill="#F8C2C3" transform="translate(200,194)"/>
<path d="M0 0 C0.33 0 0.66 0 1 0 C1.33 2.31 1.66 4.62 2 7 C0.02 7 -1.96 7 -4 7 C-1.125 1.125 -1.125 1.125 0 0 Z " fill="#08A1D4" transform="translate(30,234)"/>
<path d="M0 0 C2.375 0.25 2.375 0.25 5 1 C6.3125 3.0625 6.3125 3.0625 7 5 C5.35 5 3.7 5 2 5 C1.34 3.35 0.68 1.7 0 0 Z " fill="#EA2A2C" transform="translate(117,192)"/>
<path d="M0 0 C1.625 1.6875 1.625 1.6875 3 4 C2.1875 6.75 2.1875 6.75 1 9 C-1 6 -1 6 -0.625 2.8125 C-0.41875 1.884375 -0.2125 0.95625 0 0 Z " fill="#0DA2D4" transform="translate(39,217)"/>
<path d="M0 0 C2.64 1.32 5.28 2.64 8 4 C6.02 4.99 6.02 4.99 4 6 C4 5.34 4 4.68 4 4 C1.03 3.505 1.03 3.505 -2 3 C-1.34 2.67 -0.68 2.34 0 2 C0 1.34 0 0.68 0 0 Z " fill="#D7424B" transform="translate(90,63)"/>
<path d="M0 0 C1.68762851 1.6454378 3.3540349 3.31288577 5 5 C5 5.33 5 5.66 5 6 C3.35 6 1.7 6 0 6 C0 4.02 0 2.04 0 0 Z " fill="#DBEEF7" transform="translate(76,194)"/>
<path d="M0 0 C0.99 0 1.98 0 3 0 C3 1.65 3 3.3 3 5 C1.68 4.67 0.36 4.34 -1 4 C-0.67 2.68 -0.34 1.36 0 0 Z " fill="#EC4346" transform="translate(112,215)"/>
<path d="M0 0 C0.66 0 1.32 0 2 0 C2 1.65 2 3.3 2 5 C0.68 5 -0.64 5 -2 5 C-1.125 1.125 -1.125 1.125 0 0 Z " fill="#C3E3F2" transform="translate(70,195)"/>
<path d="M0 0 C0.99 0.33 1.98 0.66 3 1 C4.1875 3.5625 4.1875 3.5625 5 6 C3.68 5.67 2.36 5.34 1 5 C0.67 3.35 0.34 1.7 0 0 Z " fill="#ECF6FB" transform="translate(23,189)"/>
</svg>
